<svg xmlns="http://www.w3.org/2000/svg" viewBox="0 0 760 760"><path d="m45.825 3.342h667.44c17.264 0 44.4 25.366 44.4 44.604v663.06c0 17.561-26.23 45.65-47.01 45.65h-662.22c-16.898 0-44.678-25.297-44.678-37.919v-672.47c0-19.09 22.737-42.928 42.07-42.928" fill="#fff"/><path d="m25.444 52.633v658.33c0 15.811 15.542 24.19 27.475 24.19l657.36-.252c11.217 0 24.665-13.417 24.665-25.923v-654.89c.172-19.417-15.694-29.404-26.887-29.404l-654.2.252c-19.692 0-28.409 14.14-28.409 27.697z" fill="none" stroke="#000" stroke-width="17"/><g transform="translate(-.299 60.17)"><path d="m620.29687 319.82557a239.28563 239.28563 0 0 1 -478.57126 0 239.28563 239.28563 0 1 1 478.57126 0" fill="#039"/><g stroke="#fff"><g fill="none" stroke-width="40" transform="matrix(.40426 0 0 .40426 177.63 199.86)"><circle cx="215" cy="409" r="161"/><circle cx="790" cy="406" r="161"/></g><path d="m351.25 206.11c-53.592.522-44.503-5.537-73.34 87.13-23.489 74.04-20.93 65.963-21.05 71.16-.086 4.03 3.171 7.234 7.263 7.507 8.511-.861 4.931.921 34.439-90.71 107.82 113.74 67.37 95.3 125.4 97.61 76.26-.731 82.46 3.97 83.36-7.208-.104-3.796-1.88-6.06-54.22-122.54l5.01-13.79 17.237-.313-.627-14.416h-64.25c-5.676 7.765 2.298 7.731 31.03 14.1l-5.01 14.1-128.18.313c8.636-30.16 3.761-28.28 42.623-28.21l.313-14.73zm-46.64 58.39l125.43-.222-36.25 97.41-89.18-97.18zm140.55 5.782l-35.582 93.4 77.84.222-42.25-93.63z" fill="#fff" fill-rule="evenodd"/></g></g></svg>