<svg xmlns="http://www.w3.org/2000/svg" viewBox="0 0 20 20"><path d="M19.5 10A9.5 9.5 0 1 1 .5 10 9.5 9.5 0 1 1 19.5 10z" fill="#fff" stroke="#000"/><path transform="matrix(-.5-.86603.86603-.5 0 0)" d="m-18.66 3.16h10v1h-10z"/><path d="m5 9.5h10v1h-10z"/><path transform="matrix(.86603-.5.5.86603 0 0)" d="m-3.84 13.16h15v1h-15z"/><path transform="matrix(.5-.86603.86603.5 0 0)" d="m-8.66 13.16h10v1h-10z"/><path transform="matrix(0-1 1 0 0 0)" d="m-17.5 9.5h15v1h-15z"/><path transform="matrix(-.86603-.5.5-.86603 0 0)" d="m-21.16-4.16h15v1h-15z"/><circle transform="translate(.007.064)" cx="9.993" cy="9.935" r="2.999"/><path d="M12 10A2 2 0 1 1 8 10 2 2 0 1 1 12 10" fill="#fff"/></svg>