<svg xmlns="http://www.w3.org/2000/svg" viewBox="0 0 48 48" xmlns:xlink="http://www.w3.org/1999/xlink"><defs><path id="0" d="M36.34964 11.405586A14 14 0 0 1 36.493432 24.317765" stroke-linejoin="round" fill="none" stroke-linecap="round"/><path id="1" d="M39.0644 6.421403A19 19 0 0 1 39.24004 29.346418" stroke-linejoin="round" fill="none" stroke-linecap="round"/></defs><g stroke="#fff"><path d="m20 34l12 7-8-18-8 18" fill="none" fill-rule="evenodd" stroke-linejoin="round" stroke-linecap="round" stroke-width="12"/><use transform="matrix(-1 0 0 1 51.85.139)" stroke-width="11" xlink:href="#0"/><g stroke-width="12"><path d="M39.0644 6.421403A19 19 0 0 1 39.24004 29.346418" transform="matrix(-1 0 0 1 49.12-.421)" fill="none" stroke-linejoin="round" stroke-linecap="round"/><use transform="translate(-1.066-.421)" xlink:href="#1"/></g><use transform="translate(-3.6.139)" stroke-width="11" xlink:href="#0"/><path transform="translate(0-6)" d="M29 24A5 5 0 1 1 19 24 5 5 0 1 1 29 24z" fill="#fff" stroke-linejoin="round" stroke-linecap="round" stroke-width="8"/></g><path d="M29 24A5 5 0 1 1 19 24 5 5 0 1 1 29 24" transform="translate(0-6)"/><g stroke="#000"><path d="m20 34l12 7-8-18-8 18" fill="none" fill-rule="evenodd" stroke-linejoin="round" stroke-linecap="round" stroke-width="4"/><g stroke-width="3"><use transform="translate(-3.6.139)" xlink:href="#0"/><path d="M36.429757 11.557862A14 14 0 0 1 36.529644 24.24564" transform="matrix(-1 0 0 1 51.6.139)" fill="none" stroke-linejoin="round" stroke-linecap="round"/></g><g stroke-width="4"><use transform="translate(-1.066-.421)" xlink:href="#1"/><use transform="matrix(-1 0 0 1 49.24-.346)" xlink:href="#1"/></g></g></svg>