<svg xmlns="http://www.w3.org/2000/svg" xmlns:xlink="http://www.w3.org/1999/xlink" viewBox="0 0 668.13 692.11"><defs><filter id="7"><feGaussianBlur stdDeviation=".19096"/></filter><filter id="6"><feGaussianBlur stdDeviation=".14603"/></filter><filter id="9"><feGaussianBlur stdDeviation=".18002"/></filter><filter id="E" y="-.133" width="1.12" x="-.06" height="1.266"><feGaussianBlur stdDeviation="2.38616"/></filter><filter id="D"><feGaussianBlur stdDeviation=".28665"/></filter><filter id="8"><feGaussianBlur stdDeviation=".29144"/></filter><filter id="1"><feGaussianBlur stdDeviation=".10493"/></filter><filter id="B" y="-.024" width="2.454" x="-.727" height="1.049"><feGaussianBlur stdDeviation="2.83"/></filter><filter id="2"><feGaussianBlur stdDeviation=".14911"/></filter><filter id="3" y="-.1" width="1.048" x="-.024" height="1.201"><feGaussianBlur stdDeviation=".13989"/></filter><filter id="4"><feGaussianBlur stdDeviation=".15094"/></filter><linearGradient id="R" y2="174.4" gradientUnits="userSpaceOnUse" y1="164.83" x2="1025.1" x1="1036.5"><stop stop-color="#ccc"/><stop stop-color="#fff" offset="1"/></linearGradient><linearGradient id="Q" y2="174.3" gradientUnits="userSpaceOnUse" y1="166.91" x2="1017.1" x1="1027.7"><stop stop-color="#333"/><stop stop-color="#ccc" offset="1"/></linearGradient><linearGradient id="P" y2="169.45" gradientUnits="userSpaceOnUse" y1="174.22" x2="1015.7" x1="1019.5" xlink:href="#0"/><linearGradient id="S" x1="1004.5" xlink:href="#0" gradientUnits="userSpaceOnUse" x2="1008.6" y1="162.97" y2="162.04"/><linearGradient id="O" y2="165.69" gradientUnits="userSpaceOnUse" y1="170.63" x2="1013" x1="1015.5"><stop stop-color="#333"/><stop stop-color="#fff" stop-opacity="0" offset="1"/></linearGradient><linearGradient id="b" x1="469.94" gradientUnits="userSpaceOnUse" y1="324.27" x2="661.3" y2="723.92"><stop stop-color="#e6e6e6"/><stop stop-color="#666" offset="1"/></linearGradient><linearGradient id="Z" x1="202.51" gradientUnits="userSpaceOnUse" y1="752.23" x2="215.48" y2="684.54" xlink:href="#0"/><linearGradient id="T" x1="1028.92" xlink:href="#0" gradientUnits="userSpaceOnUse" y1="162.44" x2="1030.63" y2="164.58"/><linearGradient id="X" x1="278.52" gradientUnits="userSpaceOnUse" y1="291.17" x2="189.96" y2="316.63" xlink:href="#M"/><linearGradient id="V" x1="411.37" gradientUnits="userSpaceOnUse" x2="511"><stop stop-color="#ccc"/><stop stop-color="#191919" offset="1"/></linearGradient><linearGradient id="U" y2="171.9" gradientUnits="userSpaceOnUse" y1="164.11" x2="1032.4" x1="1031.8" xlink:href="#C"/><linearGradient id="N" y2="164.62" gradientUnits="userSpaceOnUse" y1="170.13" x2="1006.1" x1="1006.7"><stop stop-color="#7f7f7f" stop-opacity="0"/><stop offset="1"/></linearGradient><linearGradient id="J" x1="1021.84" xlink:href="#A" gradientUnits="userSpaceOnUse" y1="182.63" x2="1022.65" y2="178.21"/><linearGradient id="M" x1="1016.62" gradientUnits="userSpaceOnUse" y1="171.12" x2="1020.48" y2="177.67"><stop stop-color="#b3b3b3"/><stop stop-color="#fff" offset="1"/></linearGradient><linearGradient id="G" xlink:href="#C" gradientUnits="userSpaceOnUse" x2="0" y1="682.89" y2="421.5"/><linearGradient id="A"><stop stop-color="#fff"/><stop stop-color="#4d4d4d" stop-opacity="0" offset="1"/></linearGradient><linearGradient id="0"><stop/><stop stop-opacity="0" offset="1"/></linearGradient><linearGradient id="5"><stop stop-color="#4d4d4d"/><stop stop-color="#4d4d4d" stop-opacity="0" offset="1"/></linearGradient><linearGradient id="C"><stop stop-color="#fff"/><stop stop-color="#fff" stop-opacity="0" offset="1"/></linearGradient><linearGradient id="K" xlink:href="#5" gradientUnits="userSpaceOnUse" y1="172.72" x2="0" y2="184.85"/><linearGradient id="L" xlink:href="#5" gradientUnits="userSpaceOnUse" y1="207.77" x2="0" y2="219.9"/><linearGradient id="c" x1="250.27" gradientUnits="userSpaceOnUse" y1="730.24" x2="282.06" y2="421.85"><stop stop-color="#fff"/><stop stop-color="#e6e6e6" offset="1"/></linearGradient><linearGradient id="H" x1="1008.09" xlink:href="#A" gradientUnits="userSpaceOnUse" y1="183.48" x2="1008.9" y2="179.06"/><linearGradient id="I" x1="1019.31" xlink:href="#C" gradientUnits="userSpaceOnUse" y1="180.29" x2="1019.61" y2="187.74"/><radialGradient id="a" gradientUnits="userSpaceOnUse" cy="164.89" cx="1006.3" gradientTransform="matrix(15.657 27.812-42.83 24.111-8504.3-31809)" r="5.473"><stop stop-color="#333"/><stop stop-color="#efefef" offset="1"/></radialGradient><radialGradient id="Y" gradientUnits="userSpaceOnUse" cy="209.14" cx="990.44" gradientTransform="matrix(-28.792-35.184 33.772-27.637 21787 40907)" r="5.838"><stop stop-color="#fff"/><stop stop-color="#b3b3b3" offset="1"/></radialGradient><radialGradient id="W" gradientUnits="userSpaceOnUse" cy="205.93" cx="999.93" gradientTransform="matrix(55.986 25.92-51.367 110.96-45063-48503)" r="2.866"><stop stop-color="#fff"/><stop offset="1"/></radialGradient><radialGradient id="F" gradientUnits="userSpaceOnUse" cy="238.35" cx="985.76" gradientTransform="matrix(1.1641-1.9754 2.046 1.2058-614.23 1863.9)" r="11.04" xlink:href="#C"/></defs><g transform="translate(-20.22-117.73)"><g fill-rule="evenodd"><path opacity=".756" d="m1281.8 669.91l53.2 20.64 42.7-29.39-53.2-13.65-42.7 22.4" transform="matrix(6.968 0 0 7.1641-8911.7-4137.4)" filter="url(#E)"/><path fill="#500" d="m38.852 368.18v277.03l354.81 128.85 273.95-183.15v-263.18l-281.65 149.29-347.11-108.84"/><path opacity=".525" d="m997.28 194.51l22.12 8.26v-17.07l-22.12-6.72v15.53" transform="matrix(15.815 0 0 15.815-15731-2436.6)" filter="url(#D)" fill="url(#F)"/></g><path opacity=".522" filter="url(#B)" fill="url(#G)" stroke-width="18" d="m387.61 483.6h7.908v284.52h-7.908z"/><path fill="#500" d="m319.5 219.77l355.65 56.07-.87 95.52-279.89 141.64-360.74-110.9.584-97.65 285.27-84.68z"/><g fill-rule="evenodd"><path opacity=".5" d="m996.92 175.07l.09 4.36 22.19 6.9.1-5.08-22.38-6.18" transform="matrix(15.815 0 0 15.815-15731-2436.6)" filter="url(#9)" fill="url(#H)"/><path d="m997.08 173.49l22.42 5.94 17.5-7.69v.46l-17.3 7.67-.1 6.23h-.5v-6.23l-21.99-5.85-.03-.53" transform="matrix(15.815 0 0 15.815-15731-2436.6)" filter="url(#8)" fill="url(#I)"/><path filter="url(#7)" transform="matrix(15.815 0 0 15.815-15731-2436.6)" d="m1023.9 170.19l-18.3 5.78-.2 21.61 4.6 1.87.2-22.15 18.7-7.08-5-.03"/><path fill="url(#c)" d="m467.13 243.06l-296.48 97.89-4.41 351.7 73.66 26.47 3.71-357.02 297.45-107.8-73.93-11.24"/><path opacity=".5" d="m1014.7 176.33l.4 4.61 17.8 4.54.1-5.09-18.3-4.06" transform="matrix(-15.815 3.8478 0 15.815 16726-6396.6)" filter="url(#9)" fill="url(#J)"/><path filter="url(#6)" transform="matrix(15.815 0 0 15.815-15731-2436.6)" d="m1005.3 170.83l21.8 5.57v21.42l4.2-2.82-.2-20.54-21.6-4.75-4.2 1.12"/><path fill="url(#b)" d="m168.16 264.43l347.16 86.04-1.31 343.43 65.88-44.22-1.13-329.87-342.1-76.34-68.5 20.96"/><path fill="url(#a)" d="m244.01 172.71s3.45 28.5 23.26 54.73c9.4 12.45 45.83 33.52 45.83 33.52l19.85 23.94s-20.53 6.85-30.79 5.48-61.17-16.14-80.32-27.09c-19.16-10.94-53.36-49.52-55.42-58.42-2.05-8.89-11.5-32.01-3.29-47.07 8.21-15.05 24.1-22.03 28.89-22.72 4.79-.68 49.94 22.58 49.94 22.58l2.05 15.05"/><path opacity=".591" d="m1005.6 175.93l4.2 1.02-.3 11.59-4-3.55.1-9.06" transform="matrix(15.815 0 0 15.815-15731-2436.6)" filter="url(#4)" fill="url(#K)"/><path fill="url(#Z)" d="m168.62 651.7l-1.18 39.97 71.34 25.75.59-44.11-70.75-21.61"/><path opacity=".674" d="m1011.5 210.58l4.1 1.82-.2 11.19-4-3.55.1-9.46" transform="matrix(-13.1 0 0 13.1 13829-2431.5)" filter="url(#4)" fill="url(#L)"/><g transform="matrix(15.741 1.5274-1.5274 15.741-15388-3975.6)"><path opacity=".953" d="m1015 173.21s1.9-.14 2.2.99-.6 2.48 1.8 4.67c.7-.36.7-1.06.7-1.06l1.9.77s-1.5-2.19-1.5-3.11c0-.91.2-2.05-.4-2.4-.7-.35-3.8-.35-3.8-.35l-.9.49"/><path fill="url(#M)" d="m1015.1 173.08s1.9-.14 2.2.99-.6 2.47 1.8 4.66c.7-.35.7-1.06.7-1.06l1.9.78s-1.5-2.19-1.5-3.11.2-2.05-.4-2.4c-.7-.36-3.8-.36-3.8-.36l-.9.5"/></g><path filter="url(#3)" transform="matrix(15.815 0 0 15.815-15731-2436.6)" d="m1010.4 171.77s-1.8.92-2.7 1.2c-.8.28-5.5-.07-5.5-.07l2.4.78-.6 1.41s3.5.04 4.8-.14c1.9-.26 2.5-1.77 5.1-1.84 1.6-.04 2.4.14 2.4.14s-2.1-1.69-5.9-1.48"/><path d="m1008.6 163.52s-1.1-.63-1.5-.63c-.5 0-2 .58-2.1 1.36-.2.79-.4 2.42.3 3.36.8.95 1.9 1.94 1.9 1.94s-1.7-3.16-1-4.61c.8-1.59 2.4-1.42 2.4-1.42" transform="matrix(15.815 0 0 15.815-15731-2436.6)" filter="url(#2)" fill="url(#N)"/><path fill="url(#Y)" d="m232.25 117.91c-29.76 2.09-61.2 23.06-71.66 41.02-13.95 23.95 8.02 67.13 40.3 92.09 44.25 34.2 110.44 35.47 110.44 35.47 0-1.03 43.23 11.95 25.7-38.6-25.18-72.57-42.19-108.02-76.11-125.04-8.69-4.36-18.75-5.64-28.67-4.94m-41.62 28.34c30.19-9.41 49.04 31.59 62.38 48.27 16.42 20.52 57.82 81.05 57.82 81.05l8.4 10.87s-4.57.08-50.41-10.87c-45.83-10.95-78.79-42-80.16-44.74-27.31-32.41-35.35-72.42 1.97-84.58"/><path fill="url(#X)" d="m253.71 276.38s-29.07 14.53-42.48 19-87.19-1.12-87.19-1.12l38.01 12.3-10.07 22.35s55.74.55 76.02-2.23c29.92-4.1 39.12-27.95 80.48-29.07 24.81-.67 38.01 2.24 38.01 2.24s-33.54-26.83-92.78-23.47"/><g transform="matrix(15.815 0 0 15.815-15731-2436.6)"><path d="m1019.9 171.39s-3.1-1.43-3.8-1.43-1.9 1.37-1.5 2.21c.3.85 2.8 1.44 3.6 1.44.7-.18 1.3-.4 2-.72 0-.45-.3-1.5-.3-1.5"/><path d="m1011.9 167.01l2.8 4.38 1.4-1.04s-1.4-3.13-2.2-4.52-1.3-2.02-1.3-2.02 1.2 2.92.9 3.48-1.5-.28-1.6-.28" filter="url(#1)" fill="url(#O)"/></g><path fill="url(#W)" d="m398.03 272.81c-4.89-4.12-49.56-24.03-60.91-24.03s-29.91 21.66-24.76 35.07c5.16 13.41 45.39 22.7 57.77 22.7 11.03-2.83 21.05-6.33 31.98-11.35 0-7.22 2.15-15.29-4.08-22.39"/><path fill="url(#V)" d="m379.46 306.11s35.54 13.03 57.43 16.45 66.4 10.92 77.35 6.81c10.94-4.1 70.46-16.42 78.67-29.41 8.21-13-43.78-15.06-43.78-15.06s-29.42 18.48-49.95 19.84c-20.52 1.37-80.72-12.99-80.72-12.99l-38.31 10.26-.69 4.1"/><path d="m1015.6 169.98s.4-.17.7-.07c.4.13.7.18 1.6.57 1 .43 1.7.76 1.8.81.5.48.1.98.2 1.54-.4.17-1.4.51-1.6.54-.7-.65.1-1.76 1.1-1.84-.2-.22-1.2-.73-1.5-.85-.8-.33-1.7-.65-1.7-.65s-.9-.11-1.3.61c.1-.36.7-.7.7-.66" transform="matrix(15.815 0 0 15.815-15731-2436.6)" fill="url(#P)"/><g transform="matrix(15.815 0 0 15.815-15731-2436.6)"><path fill="url(#Q)" d="m1019 173.12l2.1-.52s3.5-2.94 3.9-3.12c2-1.64 4.5-2.25 6.5-1.51 0 0-.2-2.64-.9-2.98-.7-.35-2.6-.61-2.6-.61s-2.6 1.73-2.9 2.03-4.7 4.63-4.7 4.63l-1.3 1.62-.3.56.2-.1"/><path fill="url(#R)" d="m1029.8 163.55c-3.4.22-10 8.06-10.4 8.49s-1 1.37-1 1.32 4.3 1.88 7.9 1.66 8.2-2.41 8.6-5.54c.6-3.6-1.8-6.14-5.1-5.93m-2.3 1.49c1.1-.2 3.5-.22 3.1 3.42-.3 2.25-1.9 5.82-5.2 6-3.3.17-6.6-1.27-6.6-1.31 0 0 5.3-5.61 5.6-5.79.2-.17 1.8-2 3.1-2.32"/></g><path opacity=".558" d="m1004.7 164.66c-.1-.82 1.5-2.01 2.9-2.53 1.3-.53 3-.36 3-.36s-1.5.67-2.1 1.12c-1.2-.12-2.4.41-2.4.41s-.7.28-1.4 1.36" transform="matrix(15.815 0 0 15.815-15731-2436.6)" fill="url(#S)"/><path opacity=".558" d="m1026.8 165.52c.8-1.14 1.3-1.64 2.9-2.13 1.4-.42 3.8.67 3.8.67s-1.3 1.37-1.9 1.83c-.7-.94-2.5-1.22-2.5-1.22s-1.1-.15-2.3.85" transform="matrix(15.416 3.5311-3.5311 15.416-14738-6002.9)" fill="url(#T)"/><path d="m1030.8 165.7s.7 1.76.3 3.24-1 2.36-1 2.36 2 .38 3-.05c1-.44 1.5-1.27 1.5-1.27s.5-2.47-.1-3.62-1.4-1.43-1.4-1.43-1.4 0-2.3.77" transform="matrix(15.815 0 0 15.815-15731-2436.6)" fill="url(#U)"/></g></g></svg>