<?xml version="1.0" encoding="UTF-8" standalone="no"?>
<!-- Created with Inkscape (http://www.inkscape.org/) -->

<svg
   xmlns:dc="http://purl.org/dc/elements/1.1/"
   xmlns:cc="http://creativecommons.org/ns#"
   xmlns:rdf="http://www.w3.org/1999/02/22-rdf-syntax-ns#"
   xmlns:svg="http://www.w3.org/2000/svg"
   xmlns="http://www.w3.org/2000/svg"
   xmlns:sodipodi="http://sodipodi.sourceforge.net/DTD/sodipodi-0.dtd"
   xmlns:inkscape="http://www.inkscape.org/namespaces/inkscape"
   width="600"
   height="600.00037"
   id="svg3699"
   version="1.1"
   inkscape:version="0.47 r22583"
   sodipodi:docname="Zeichen_274-53.svg">
  <defs
     id="defs3701">
    <inkscape:perspective
       sodipodi:type="inkscape:persp3d"
       inkscape:vp_x="0 : 526.18109 : 1"
       inkscape:vp_y="0 : 1000 : 0"
       inkscape:vp_z="744.09448 : 526.18109 : 1"
       inkscape:persp3d-origin="372.04724 : 350.78739 : 1"
       id="perspective3707" />
    <inkscape:perspective
       id="perspective3729"
       inkscape:persp3d-origin="0.5 : 0.33333333 : 1"
       inkscape:vp_z="1 : 0.5 : 1"
       inkscape:vp_y="0 : 1000 : 0"
       inkscape:vp_x="0 : 0.5 : 1"
       sodipodi:type="inkscape:persp3d" />
  </defs>
  <sodipodi:namedview
     id="base"
     pagecolor="#ffffff"
     bordercolor="#666666"
     borderopacity="1.0"
     inkscape:pageopacity="0.0"
     inkscape:pageshadow="2"
     inkscape:zoom="3.959798"
     inkscape:cx="28.621467"
     inkscape:cy="55.79502"
     inkscape:document-units="px"
     inkscape:current-layer="layer1"
     showgrid="false"
     inkscape:window-width="1280"
     inkscape:window-height="951"
     inkscape:window-x="1280"
     inkscape:window-y="24"
     inkscape:window-maximized="1" />
  <metadata
     id="metadata3704">
    <rdf:RDF>
      <cc:Work
         rdf:about="">
        <dc:format>image/svg+xml</dc:format>
        <dc:type
           rdf:resource="http://purl.org/dc/dcmitype/StillImage" />
        <dc:title />
      </cc:Work>
    </rdf:RDF>
  </metadata>
  <g
     inkscape:label="Ebene 1"
     inkscape:groupmode="layer"
     id="layer1"
     transform="translate(-1.520306,-451.85167)">
    <g
       style="font-size:100px;font-style:normal;font-variant:normal;font-weight:normal;font-stretch:normal;fill:#000000;fill-opacity:1;stroke:none;font-family:Zeichen Zweihundert;-inkscape-font-specification:Zeichen Zweihundert"
       id="text4280"
       transform="matrix(7.1090047,0,0,7.1090047,-9.2875572,-6425.7695)">
      <path
         d="m 43.720306,968.05205 c 5.866619,8e-5 11.266614,1.10008 16.2,3.3 4.999937,2.13341 9.399933,5.10008 13.2,8.9 3.799925,3.80007 6.766589,8.20006 8.9,13.2 2.199918,4.93339 3.299917,10.33335 3.3,16.20005 -8.3e-5,5.8667 -1.100082,11.3 -3.3,16.3 -2.133411,5 -5.100075,9.4 -8.9,13.2 -3.800067,3.8 -8.200063,6.8 -13.2,9 -4.933386,2.1333 -10.333381,3.2 -16.2,3.2 -5.866702,0 -11.30003,-1.0667 -16.3,-3.2 -5.00002,-2.2 -9.400016,-5.2 -13.2,-9 -3.800008,-3.8 -6.8000053,-8.2 -8.9999999,-13.2 -2.1333344,-5 -3.2,-10.4333 -3.2,-16.3 0,-5.8667 1.0666656,-11.26666 3.2,-16.20005 2.1999946,-4.99994 5.1999919,-9.39993 8.9999999,-13.2 3.799984,-3.79992 8.19998,-6.76659 13.2,-8.9 4.99997,-2.19992 10.433298,-3.29992 16.3,-3.3"
         style="fill:#ffffff"
         id="path5794" />
      <path
         d="m 43.720306,967.45205 c 5.533286,8e-5 10.999947,1.10008 16.4,3.3 l 2.4,1.2 c 2.066604,1.06675 3.999936,2.26674 5.8,3.6 1.866599,1.26674 3.59993,2.70007 5.2,4.3 0.533261,0.53341 1.033261,1.06674 1.5,1.6 0.466593,0.5334 0.966593,1.1334 1.5,1.8 0.666592,0.9334 1.566591,2.1334 2.7,3.6 4.466585,7.06672 6.699916,14.66675 6.7,22.80005 -8.4e-5,5.7333 -1.100083,11.2333 -3.3,16.5 l -1.2,2.4 c -2.000077,4.0666 -4.633408,7.7333 -7.9,11 -0.600071,0.5333 -1.166737,1.0666 -1.7,1.6 -0.533402,0.5333 -1.100069,1 -1.7,1.4 -1.266733,1.0666 -2.500065,1.9666 -3.7,2.7 -6.933391,4.4 -14.50005,6.6 -22.7,6.6 -5.933369,0 -11.433363,-1.1 -16.5,-3.3 -0.266691,-0.1334 -0.600024,-0.2667 -1,-0.4 -0.400024,-0.2 -0.86669,-0.4334 -1.4,-0.7 -2.066687,-0.9334 -4.000019,-2.0667 -5.8,-3.4 -1.800015,-1.3334 -3.533347,-2.8334 -5.2,-4.5 -0.533344,-0.5334 -1.066677,-1.0667 -1.6,-1.6 -0.533343,-0.6 -1.000009,-1.2 -1.4,-1.8 -0.533341,-0.7334 -1.033341,-1.4 -1.4999999,-2 -0.4666735,-0.6 -0.8666731,-1.1667 -1.2,-1.7 -4.4000017,-6.8667 -6.5999995,-14.4667 -6.6,-22.8 5e-7,-5.9333 1.0999994,-11.4 3.3,-16.40005 0.1333304,-0.26661 0.2666636,-0.59994 0.4,-1 0.1999966,-0.39994 0.4333297,-0.86661 0.7,-1.4 1.8666609,-3.93327 4.4999919,-7.59993 7.8999999,-11 1.466654,-1.46659 2.599986,-2.46659 3.4,-3 0.733318,-0.53326 1.399984,-1.03326 2,-1.5 0.599982,-0.46659 1.166648,-0.86659 1.7,-1.2 6.866641,-4.46658 14.466633,-6.69992 22.8,-6.7 m 0,1.1 c -8.0667,8e-5 -15.466693,2.16675 -22.2,6.5 -0.933352,0.46674 -2.133351,1.33341 -3.6,2.6 -1.200015,0.93341 -2.300013,1.93341 -3.3,3 -3.133343,3.1334 -5.7000068,6.70006 -7.6999999,10.7 -0.2666713,0.46673 -0.5000044,0.90006 -0.7,1.3 -0.1333374,0.33339 -0.2666706,0.66673 -0.4,1 -2.133335,5.26672 -3.2000006,10.60005 -3.2,16.00005 -6e-7,8.0667 2.1666639,15.4666 6.5,22.2 0.5333257,0.8666 0.9999919,1.6 1.3999999,2.2 0.399991,0.6 0.766658,1.0666 1.1,1.4 0.466657,0.6 0.933323,1.1666 1.4,1.7 0.533322,0.5333 1.066655,1.0666 1.6,1.6 3.133318,3.1333 6.699981,5.7 10.7,7.7 0.53331,0.2666 0.999976,0.5 1.4,0.7 0.399975,0.1333 0.733308,0.2666 1,0.4 5.199969,2.1333 10.533297,3.2 16,3.2 7.99995,0 15.36661,-2.1667 22.1,-6.5 0.733269,-0.4667 1.366602,-0.9 1.9,-1.3 0.599934,-0.4 1.1666,-0.8 1.7,-1.2 1.199932,-1 2.29993,-2 3.3,-3 3.333259,-3.3334 5.933257,-6.9 7.8,-10.7 0.133255,-0.4 0.266588,-0.8 0.4,-1.2 0.199921,-0.4 0.399921,-0.8 0.6,-1.2 2.199918,-5.0667 3.299917,-10.4 3.3,-16 -8.3e-5,-7.8667 -2.166747,-15.26666 -6.5,-22.20005 -0.400076,-0.53327 -0.833409,-1.09993 -1.3,-1.7 -0.400074,-0.59993 -0.833407,-1.19993 -1.3,-1.8 -0.933406,-1.19993 -1.933405,-2.29993 -3,-3.3 -3.333401,-3.33326 -6.900064,-5.93326 -10.7,-7.8 -0.400059,-0.13325 -0.800059,-0.26659 -1.2,-0.4 -0.400058,-0.19992 -0.766725,-0.39992 -1.1,-0.6 -5.333386,-2.19992 -10.666714,-3.29992 -16,-3.3"
         id="path5796" />
      <path
         d="m 43.720306,980.05205 c -8.200033,7e-5 -15.200026,2.90007 -21,8.7 -5.800015,5.73339 -8.700012,12.70005 -8.7,20.90005 -1.2e-5,8.2 2.899985,15.2 8.7,21 5.799974,5.8 12.799967,8.7 21,8.7 8.19995,0 15.16661,-2.9 20.9,-8.7 5.799932,-5.8 8.699929,-12.8 8.7,-21 -7.1e-5,-8.2 -2.900068,-15.16666 -8.7,-20.90005 -5.73339,-5.79993 -12.70005,-8.69993 -20.9,-8.7 m 0,-9.9 c 5.399953,8e-5 10.499948,1.03341 15.3,3.1 4.799938,2.06674 8.999934,4.90007 12.6,8.5 3.599927,3.60007 6.433257,7.80006 8.5,12.6 2.066587,4.80005 3.099919,9.90005 3.1,15.30005 -8.1e-5,5.4667 -1.033413,10.6 -3.1,15.4 -2.066743,4.8 -4.900073,9 -8.5,12.6 -3.600066,3.6 -7.800062,6.4333 -12.6,8.5 -4.800052,2 -9.900047,3 -15.3,3 -5.466703,0 -10.600031,-1 -15.4,-3 -4.800021,-2.0667 -9.000017,-4.9 -12.6,-8.5 -3.60001,-3.6 -6.4333405,-7.8 -8.4999999,-12.6 -2.0000032,-4.8 -3.0000022,-9.9333 -3,-15.4 -2.2e-6,-5.4 0.9999968,-10.5 3,-15.30005 2.0666594,-4.79994 4.8999899,-8.99993 8.4999999,-12.6 3.599983,-3.59993 7.799979,-6.43326 12.6,-8.5 4.799969,-2.06659 9.933297,-3.09992 15.4,-3.1"
         style="fill:#cc0000;fill-opacity:1"
         id="path5798" />
      <path
         d="m 30.820306,1006.2521 c 1.666636,0 2.966635,-0.4667 3.9,-1.4 0.999966,-0.8667 1.499966,-2.0667 1.5,-3.6 -3.4e-5,-1.4 -0.500034,-2.6 -1.5,-3.60005 -1.000032,-0.99994 -2.20003,-1.49994 -3.6,-1.5 -1.066695,6e-5 -2.066694,0.36672 -3,1.1 -1.000025,0.66672 -1.633358,1.73339 -1.9,3.20005 l -5,0 c 0.06665,-2.33333 1.09998,-4.49999 3.1,-6.50005 1.866643,-1.86661 4.06664,-2.79994 6.6,-2.8 2.999968,6e-5 5.499966,1.03339 7.5,3.1 1.866629,2.06672 2.799961,4.36672 2.8,6.90005 -3.9e-5,1.2667 -0.266705,2.6 -0.8,4 -0.533371,1.2 -1.53337,2.3 -3,3.3 1.599963,1.0667 2.666629,2.2 3.2,3.4 0.666628,1.2667 0.999961,2.6667 1,4.2 -3.9e-5,3.3333 -1.033372,5.9333 -3.1,7.8 -1.933368,1.9333 -4.433365,2.9 -7.5,2.9 -2.466693,0 -4.633358,-0.7334 -6.5,-2.2 -1.800021,-1.4667 -2.966686,-3.7334 -3.5,-6.8 l 5,0 c 0.133309,0.4667 0.266643,0.8333 0.4,1.1 0.133309,0.2666 0.266642,0.4666 0.4,0.6 0.266642,0.4 0.633308,0.8333 1.1,1.3 0.533307,0.4666 1.033307,0.7333 1.5,0.8 0.333306,0.067 0.633305,0.1333 0.9,0.2 0.333305,0 0.666638,0 1,0 1.333303,0 2.566635,-0.4667 3.7,-1.4 1.066633,-1.0667 1.599966,-2.4333 1.6,-4.1 -3.4e-5,-1.6667 -0.533367,-3.0333 -1.6,-4.1 -1.133365,-1 -2.40003,-1.5 -3.8,-1.5 l -2.2,0 0,-4.4 1.8,0 m 29.9,-4.7 c -5.9e-5,-0.8667 -0.100058,-1.6 -0.3,-2.20005 -0.466724,-0.93328 -0.800057,-1.49995 -1,-1.7 -0.73339,-0.59994 -1.266723,-0.96661 -1.6,-1.1 -0.733388,-0.26661 -1.400054,-0.39994 -2,-0.4 -0.600053,6e-5 -1.266719,0.13339 -2,0.4 -0.733384,0.33339 -1.266717,0.70005 -1.6,1.1 -0.600049,0.60005 -0.933382,1.16672 -1,1.7 -0.200049,0.60005 -0.300049,1.33335 -0.3,2.20005 l 0,14.9 c -4.9e-5,0.8667 0.09995,1.6333 0.3,2.3 0.199951,0.6 0.533284,1.1333 1,1.6 0.39995,0.4 0.933282,0.7666 1.6,1.1 0.599948,0.2 1.266614,0.3 2,0.3 0.733279,0 1.399945,-0.1 2,-0.3 0.599944,-0.2667 1.133277,-0.6334 1.6,-1.1 0.266609,-0.2667 0.599942,-0.8 1,-1.6 0.199942,-0.6667 0.299941,-1.4333 0.3,-2.3 l 0,-14.9 m -14.9,-0.3 c -4.4e-5,-3.13333 1.033289,-5.59999 3.1,-7.40005 1.999951,-1.79994 4.299949,-2.69994 6.9,-2.7 2.599944,6e-5 4.899941,0.90006 6.9,2.7 1.999937,1.73339 2.999936,4.20005 3,7.40005 l 0,15.5 c -6.4e-5,3.2666 -1.000063,5.7333 -3,7.4 -1.933392,1.7333 -4.23339,2.6 -6.9,2.6 -2.666718,0 -4.966715,-0.8667 -6.9,-2.6 -2.066711,-1.6667 -3.100044,-4.1334 -3.1,-7.4 l 0,-15.5"
         id="path5800" />
    </g>
  </g>
</svg>
