<?xml version="1.0" encoding="UTF-8" standalone="no"?>
<!-- Created with Inkscape (http://www.inkscape.org/) -->

<svg
   xmlns:dc="http://purl.org/dc/elements/1.1/"
   xmlns:cc="http://creativecommons.org/ns#"
   xmlns:rdf="http://www.w3.org/1999/02/22-rdf-syntax-ns#"
   xmlns:svg="http://www.w3.org/2000/svg"
   xmlns="http://www.w3.org/2000/svg"
   xmlns:sodipodi="http://sodipodi.sourceforge.net/DTD/sodipodi-0.dtd"
   xmlns:inkscape="http://www.inkscape.org/namespaces/inkscape"
   width="600"
   height="600.00037"
   id="svg3699"
   version="1.1"
   inkscape:version="0.47 r22583"
   sodipodi:docname="Zeichen_274-57.svg">
  <defs
     id="defs3701">
    <inkscape:perspective
       sodipodi:type="inkscape:persp3d"
       inkscape:vp_x="0 : 526.18109 : 1"
       inkscape:vp_y="0 : 1000 : 0"
       inkscape:vp_z="744.09448 : 526.18109 : 1"
       inkscape:persp3d-origin="372.04724 : 350.78739 : 1"
       id="perspective3707" />
    <inkscape:perspective
       id="perspective3729"
       inkscape:persp3d-origin="0.5 : 0.33333333 : 1"
       inkscape:vp_z="1 : 0.5 : 1"
       inkscape:vp_y="0 : 1000 : 0"
       inkscape:vp_x="0 : 0.5 : 1"
       sodipodi:type="inkscape:persp3d" />
  </defs>
  <sodipodi:namedview
     id="base"
     pagecolor="#ffffff"
     bordercolor="#666666"
     borderopacity="1.0"
     inkscape:pageopacity="0.0"
     inkscape:pageshadow="2"
     inkscape:zoom="5.6"
     inkscape:cx="12.677157"
     inkscape:cy="58.124971"
     inkscape:document-units="px"
     inkscape:current-layer="layer1"
     showgrid="false"
     inkscape:window-width="1280"
     inkscape:window-height="951"
     inkscape:window-x="1280"
     inkscape:window-y="24"
     inkscape:window-maximized="1" />
  <metadata
     id="metadata3704">
    <rdf:RDF>
      <cc:Work
         rdf:about="">
        <dc:format>image/svg+xml</dc:format>
        <dc:type
           rdf:resource="http://purl.org/dc/dcmitype/StillImage" />
        <dc:title />
      </cc:Work>
    </rdf:RDF>
  </metadata>
  <g
     inkscape:label="Ebene 1"
     inkscape:groupmode="layer"
     id="layer1"
     transform="translate(-1.520306,-451.85167)">
    <g
       style="font-size:100px;font-style:normal;font-variant:normal;font-weight:normal;font-stretch:normal;fill:#000000;fill-opacity:1;stroke:none;font-family:Zeichen Zweihundert;-inkscape-font-specification:Zeichen Zweihundert"
       id="text4280"
       transform="matrix(7.1090047,0,0,7.1090047,-9.2875572,-6425.7695)">
      <path
         d="m 43.720306,968.05205 c 5.866619,8e-5 11.266614,1.10008 16.2,3.3 4.999937,2.13341 9.399933,5.10008 13.2,8.9 3.799925,3.80007 6.766589,8.20006 8.9,13.2 2.199918,4.93339 3.299917,10.33335 3.3,16.20005 -8.3e-5,5.8667 -1.100082,11.3 -3.3,16.3 -2.133411,5 -5.100075,9.4 -8.9,13.2 -3.800067,3.8 -8.200063,6.8 -13.2,9 -4.933386,2.1333 -10.333381,3.2 -16.2,3.2 -5.866702,0 -11.30003,-1.0667 -16.3,-3.2 -5.00002,-2.2 -9.400016,-5.2 -13.2,-9 -3.800008,-3.8 -6.8000053,-8.2 -8.9999999,-13.2 -2.1333344,-5 -3.2,-10.4333 -3.2,-16.3 0,-5.8667 1.0666656,-11.26666 3.2,-16.20005 2.1999946,-4.99994 5.1999919,-9.39993 8.9999999,-13.2 3.799984,-3.79992 8.19998,-6.76659 13.2,-8.9 4.99997,-2.19992 10.433298,-3.29992 16.3,-3.3"
         style="fill:#ffffff"
         id="path8269" />
      <path
         d="m 43.720306,967.45205 c 5.533286,8e-5 10.999947,1.10008 16.4,3.3 l 2.4,1.2 c 2.066604,1.06675 3.999936,2.26674 5.8,3.6 1.866599,1.26674 3.59993,2.70007 5.2,4.3 0.533261,0.53341 1.033261,1.06674 1.5,1.6 0.466593,0.5334 0.966593,1.1334 1.5,1.8 0.666592,0.9334 1.566591,2.1334 2.7,3.6 4.466585,7.06672 6.699916,14.66675 6.7,22.80005 -8.4e-5,5.7333 -1.100083,11.2333 -3.3,16.5 l -1.2,2.4 c -2.000077,4.0666 -4.633408,7.7333 -7.9,11 -0.600071,0.5333 -1.166737,1.0666 -1.7,1.6 -0.533402,0.5333 -1.100069,1 -1.7,1.4 -1.266733,1.0666 -2.500065,1.9666 -3.7,2.7 -6.933391,4.4 -14.50005,6.6 -22.7,6.6 -5.933369,0 -11.433363,-1.1 -16.5,-3.3 -0.266691,-0.1334 -0.600024,-0.2667 -1,-0.4 -0.400024,-0.2 -0.86669,-0.4334 -1.4,-0.7 -2.066687,-0.9334 -4.000019,-2.0667 -5.8,-3.4 -1.800015,-1.3334 -3.533347,-2.8334 -5.2,-4.5 -0.533344,-0.5334 -1.066677,-1.0667 -1.6,-1.6 -0.533343,-0.6 -1.000009,-1.2 -1.4,-1.8 -0.533341,-0.7334 -1.033341,-1.4 -1.4999999,-2 -0.4666735,-0.6 -0.8666731,-1.1667 -1.2,-1.7 -4.4000017,-6.8667 -6.5999995,-14.4667 -6.6,-22.8 5e-7,-5.9333 1.0999994,-11.4 3.3,-16.40005 0.1333304,-0.26661 0.2666636,-0.59994 0.4,-1 0.1999966,-0.39994 0.4333297,-0.86661 0.7,-1.4 1.8666609,-3.93327 4.4999919,-7.59993 7.8999999,-11 1.466654,-1.46659 2.599986,-2.46659 3.4,-3 0.733318,-0.53326 1.399984,-1.03326 2,-1.5 0.599982,-0.46659 1.166648,-0.86659 1.7,-1.2 6.866641,-4.46658 14.466633,-6.69992 22.8,-6.7 m 0,1.1 c -8.0667,8e-5 -15.466693,2.16675 -22.2,6.5 -0.933352,0.46674 -2.133351,1.33341 -3.6,2.6 -1.200015,0.93341 -2.300013,1.93341 -3.3,3 -3.133343,3.1334 -5.7000068,6.70006 -7.6999999,10.7 -0.2666713,0.46673 -0.5000044,0.90006 -0.7,1.3 -0.1333374,0.33339 -0.2666706,0.66673 -0.4,1 -2.133335,5.26672 -3.2000006,10.60005 -3.2,16.00005 -6e-7,8.0667 2.1666639,15.4666 6.5,22.2 0.5333257,0.8666 0.9999919,1.6 1.3999999,2.2 0.399991,0.6 0.766658,1.0666 1.1,1.4 0.466657,0.6 0.933323,1.1666 1.4,1.7 0.533322,0.5333 1.066655,1.0666 1.6,1.6 3.133318,3.1333 6.699981,5.7 10.7,7.7 0.53331,0.2666 0.999976,0.5 1.4,0.7 0.399975,0.1333 0.733308,0.2666 1,0.4 5.199969,2.1333 10.533297,3.2 16,3.2 7.99995,0 15.36661,-2.1667 22.1,-6.5 0.733269,-0.4667 1.366602,-0.9 1.9,-1.3 0.599934,-0.4 1.1666,-0.8 1.7,-1.2 1.199932,-1 2.29993,-2 3.3,-3 3.333259,-3.3334 5.933257,-6.9 7.8,-10.7 0.133255,-0.4 0.266588,-0.8 0.4,-1.2 0.199921,-0.4 0.399921,-0.8 0.6,-1.2 2.199918,-5.0667 3.299917,-10.4 3.3,-16 -8.3e-5,-7.8667 -2.166747,-15.26666 -6.5,-22.20005 -0.400076,-0.53327 -0.833409,-1.09993 -1.3,-1.7 -0.400074,-0.59993 -0.833407,-1.19993 -1.3,-1.8 -0.933406,-1.19993 -1.933405,-2.29993 -3,-3.3 -3.333401,-3.33326 -6.900064,-5.93326 -10.7,-7.8 -0.400059,-0.13325 -0.800059,-0.26659 -1.2,-0.4 -0.400058,-0.19992 -0.766725,-0.39992 -1.1,-0.6 -5.333386,-2.19992 -10.666714,-3.29992 -16,-3.3"
         id="path8271" />
      <path
         d="m 43.720306,980.05205 c -8.200033,7e-5 -15.200026,2.90007 -21,8.7 -5.800015,5.73339 -8.700012,12.70005 -8.7,20.90005 -1.2e-5,8.2 2.899985,15.2 8.7,21 5.799974,5.8 12.799967,8.7 21,8.7 8.19995,0 15.16661,-2.9 20.9,-8.7 5.799932,-5.8 8.699929,-12.8 8.7,-21 -7.1e-5,-8.2 -2.900068,-15.16666 -8.7,-20.90005 -5.73339,-5.79993 -12.70005,-8.69993 -20.9,-8.7 m 0,-9.9 c 5.399953,8e-5 10.499948,1.03341 15.3,3.1 4.799938,2.06674 8.999934,4.90007 12.6,8.5 3.599927,3.60007 6.433257,7.80006 8.5,12.6 2.066587,4.80005 3.099919,9.90005 3.1,15.30005 -8.1e-5,5.4667 -1.033413,10.6 -3.1,15.4 -2.066743,4.8 -4.900073,9 -8.5,12.6 -3.600066,3.6 -7.800062,6.4333 -12.6,8.5 -4.800052,2 -9.900047,3 -15.3,3 -5.466703,0 -10.600031,-1 -15.4,-3 -4.800021,-2.0667 -9.000017,-4.9 -12.6,-8.5 -3.60001,-3.6 -6.4333405,-7.8 -8.4999999,-12.6 -2.0000032,-4.8 -3.0000022,-9.9333 -3,-15.4 -2.2e-6,-5.4 0.9999968,-10.5 3,-15.30005 2.0666594,-4.79994 4.8999899,-8.99993 8.4999999,-12.6 3.599983,-3.59993 7.799979,-6.43326 12.6,-8.5 4.799969,-2.06659 9.933297,-3.09992 15.4,-3.1"
         style="fill:#cc0000;fill-opacity:1"
         id="path8273" />
      <path
         d="m 43.520306,991.85205 0,5 -11.9,30.00005 -5.6,0 11.9,-30.00005 -9.3,0 0,5.10005 -5,0 0,-10.10005 19.9,0 m 17.9,10.00005 c -5.9e-5,-0.7333 -0.100059,-1.4667 -0.3,-2.20005 -0.133392,-0.33328 -0.300059,-0.63328 -0.5,-0.9 -0.200058,-0.26661 -0.366725,-0.53328 -0.5,-0.8 -0.466724,-0.46661 -1.000057,-0.83328 -1.6,-1.1 -0.600056,-0.19994 -1.266722,-0.29994 -2,-0.3 -0.733387,6e-5 -1.433386,0.10006 -2.1,0.3 -0.600052,0.33339 -1.100051,0.70005 -1.5,1.1 -0.266717,0.33339 -0.50005,0.63339 -0.7,0.9 -0.133383,0.26672 -0.233383,0.53339 -0.3,0.8 -0.266716,0.80005 -0.400049,1.53335 -0.4,2.20005 l 0,14.9 c -4.9e-5,0.7333 0.133284,1.5 0.4,2.3 0.06662,0.2666 0.166617,0.5333 0.3,0.8 0.19995,0.2666 0.433283,0.5666 0.7,0.9 0.599949,0.6 1.099948,0.9333 1.5,1 0.533281,0.2666 1.23328,0.4 2.1,0.4 0.866611,0 1.533277,-0.1334 2,-0.4 0.199943,-0.067 0.433277,-0.1667 0.7,-0.3 0.266609,-0.2 0.566609,-0.4334 0.9,-0.7 0.133275,-0.2667 0.299942,-0.5334 0.5,-0.8 0.199941,-0.2667 0.366608,-0.5667 0.5,-0.9 0.199941,-0.6667 0.299941,-1.4333 0.3,-2.3 l 0,-14.9 m -14.9,-0.2 c -4.4e-5,-3.2 1.033288,-5.69999 3.1,-7.50005 1.933284,-1.73327 4.233282,-2.59994 6.9,-2.6 2.46661,6e-5 4.766608,0.86673 6.9,2.6 1.999937,1.73339 2.999936,4.23339 3,7.50005 l 0,15.4 c -6.4e-5,3.2 -1.000063,5.7 -3,7.5 -2.133392,1.7333 -4.43339,2.6 -6.9,2.6 -2.533385,0 -4.833383,-0.8667 -6.9,-2.6 -2.066712,-1.6667 -3.100044,-4.1667 -3.1,-7.5 l 0,-15.4"
         id="path8275" />
    </g>
  </g>
</svg>
